<svg height="496pt" viewBox="0 0 496 496" width="496pt" xmlns="http://www.w3.org/2000/svg"><path d="m0 0v384h34.246094c11.386718 63.566406 66.960937 112 133.753906 112 61.070312 0 112.855469-40.472656 129.976562-96h22.023438v16h16v-16h120c22.054688 0 40-17.945312 40-40v-360zm480 16v48h-464v-48zm-192 344c0 66.167969-53.832031 120-120 120s-120-53.832031-120-120c0-49.230469 29.503906-92.945312 75.167969-111.34375l-5.984375-14.832031c-51.75 20.847656-85.183594 70.375-85.183594 126.175781 0 2.703125.246094 5.335938.40625 8h-16.40625v-288h464v248.207031c-6.703125-5.078125-14.960938-8.207031-24-8.207031h-120v-16h-16v16h-22.039062c-1.144532-3.710938-2.394532-7.390625-3.855469-11.007812l-14.832031 6.007812c5.789062 14.289062 8.726562 29.433594 8.726562 45zm13.753906 24c1.390625-7.808594 2.246094-15.800781 2.246094-24 0-8.121094-.792969-16.128906-2.191406-24h18.191406v48zm154.246094 0h-120v-48h120c13.230469 0 24 10.769531 24 24s-10.769531 24-24 24zm0 0"/><path d="m248.632812 324.6875c4.886719 11.152344 7.367188 23.039062 7.367188 35.3125 0 48.519531-39.480469 88-88 88s-88-39.480469-88-88c0-34.902344 20.65625-66.542969 52.617188-80.601562l-6.441407-14.644532c-37.769531 16.605469-62.175781 53.988282-62.175781 95.246094 0 57.34375 46.65625 104 104 104s104-46.65625 104-104c0-14.496094-2.929688-28.535156-8.710938-41.726562zm0 0"/><path d="m307.71875 264 13.625 20.441406 13.3125-8.875-18.375-27.566406h-20.28125v-16h27.71875l13.625 20.441406 13.3125-8.875-18.375-27.566406h-36.28125v-32c0-18.3125-10.3125-34.246094-25.433594-42.335938l17.433594-8.71875v-28.945312h-16v19.054688l-24 12-24-12v-19.054688h-16v28.945312l17.433594 8.710938c-15.121094 8.097656-25.433594 24.03125-25.433594 42.34375v32h-36.28125l-18.375 27.558594 13.3125 8.875 13.625-20.433594h27.71875v16h-20.28125l-18.375 27.558594 13.3125 8.875 13.625-20.433594h14.519531c6.605469 18.617188 24.34375 32 45.199219 32s38.59375-13.382812 45.199219-32zm-59.71875-112c17.648438 0 32 14.351562 32 32h-64c0-17.648438 14.351562-32 32-32zm0 128c-17.648438 0-32-14.351562-32-32v-48h64v48c0 17.648438-14.351562 32-32 32zm0 0"/><path d="m32 96h120v16h-120zm0 0"/><path d="m64 128h88v16h-88zm0 0"/><path d="m32 128h16v16h-16zm0 0"/><path d="m32 160h120v16h-120zm0 0"/><path d="m32 192h120v16h-120zm0 0"/><path d="m344 96h120v16h-120zm0 0"/><path d="m344 128h120v16h-120zm0 0"/><path d="m344 160h120v16h-120zm0 0"/><path d="m448 192h16v16h-16zm0 0"/><path d="m344 192h88v16h-88zm0 0"/><path d="m32 32h16v16h-16zm0 0"/><path d="m64 32h16v16h-16zm0 0"/><path d="m96 32h16v16h-16zm0 0"/></svg>